<svg xmlns="http://www.w3.org/2000/svg" width="24" height="24" viewBox="0 0 24 24" aria-hidden="true" focusable="false">
  <defs>
    <style>
      .g-blue{fill:#4285F4}
      .g-red{fill:#EA4335}
      .g-yellow{fill:#FBBC05}
      .g-green{fill:#34A853}
    </style>
  </defs>
  <path class="g-blue" d="M23.49 12.27c0-.8-.07-1.39-.22-1.99H12.24v3.62h6.45c-.13.9-.83 2.25-2.39 3.16l-.02.12 3.47 2.68.24.02c2.18-2.01 3.5-4.97 3.5-7.83Z"/>
  <path class="g-green" d="M12.24 24c3.17 0 5.83-1.04 7.78-2.84l-3.71-2.86c-.99.64-2.33 1.08-4.07 1.08-3.11 0-5.74-2.01-6.68-4.79l-.11.01-3.63 2.81-.05.1C2.7 21.74 7.12 24 12.24 24Z"/>
  <path class="g-yellow" d="M5.56 14.59a7.58 7.58 0 0 1-.42-2.39c0-.83.15-1.63.4-2.39l-.01-.16-3.67-2.85-.12.06A11.89 11.89 0 0 0 0 12.2c0 1.9.47 3.69 1.28 5.34l4.28-2.95Z"/>
  <path class="g-red" d="M12.24 4.75c2.2 0 3.67.94 4.51 1.72l3.29-3.21C18.05 1.18 15.41 0 12.24 0 7.12 0 2.7 2.26 1.28 6.86l4.27 2.95c.94-2.78 3.57-5.06 6.69-5.06Z"/>
</svg>
